<svg xmlns="http://www.w3.org/2000/svg"
     width="64" height="64"
     viewBox="0 0 64 64">

  <rect x="0" y="0"
        width="64" height="64"
        rx="32" ry="32"
        fill="white" />
  <g transform="
      translate(32.0,32.0)
      scale(1.8666666666666665)
      translate(-12.0,-12.0)
  ">
<g xmlns="http://www.w3.org/2000/svg" fill="none"><g fill="#006EC7" clip-path="url(#SVGXv8lpc2Y)"><path d="M5.08 0h1.082v1.069h.99V0h1.082v3.236H7.152V2.153h-.99v1.083H5.081zm4.576 1.073h-.952V0h2.987v1.073h-.953v2.163H9.656zM12.165 0h1.128l.694 1.137L14.68 0h1.128v3.236h-1.077V1.632l-.744 1.151h-.019l-.745-1.15v1.603h-1.058zm4.181 0h1.083v2.167h1.52v1.07h-2.603z" fill="#006EC7" /><path fill-rule="evenodd" d="M5.046 22.072L3 4.717h18L18.953 22.07L11.99 24zm4.137-9.5l-.194-2.18h8.145l.19-2.128H6.664l.574 6.437h7.377l-.247 2.76l-2.374.642h-.002l-2.37-.64l-.152-1.697H7.332l.298 3.342l4.36 1.21l4.367-1.21l.532-5.964l.052-.571z" clip-rule="evenodd" fill="#006EC7" /></g><defs><clipPath id="SVGXv8lpc2Y"><path fill="#006EC7" d="M0 0h24v24H0z" /></clipPath></defs></g>
  </g>
</svg>