<svg xmlns="http://www.w3.org/2000/svg"
     width="256" height="256"
     viewBox="0 0 256 256">

  <rect x="0" y="0"
        width="256" height="256"
        rx="128" ry="128"
        fill="#ffffff" />
  <g transform="
      translate(128.0,128.0)
      scale(7.466666666666666)
      translate(-12.0,-12.0)
  ">
<g xmlns="http://www.w3.org/2000/svg"><g transform-box="view-box" transform-origin="12.0px 12.0px"><path fill="#006EC7" d="M20.205 16.392c-2.469 3.289-7.741 2.179-11.122 2.338c0 0-.599.034-1.201.133c0 0 .228-.097.519-.198c2.374-.821 3.496-.986 4.939-1.727c2.71-1.388 5.408-4.413 5.957-7.555c-1.032 3.022-4.17 5.623-7.027 6.679c-1.955.722-5.492 1.424-5.493 1.424l-.143-.076c-2.405-1.17-2.475-6.38 1.894-8.059c1.916-.736 3.747-.332 5.818-.825c2.208-.525 4.766-2.18 5.805-4.344c1.165 3.458 2.565 8.866.054 12.21m.042-13.28a9.2 9.2 0 0 1-1.065 1.89a9.98 9.98 0 0 0-7.167-3.031C6.492 1.971 2 6.463 2 11.985a9.98 9.98 0 0 0 3.205 7.334l.22.194a.856.856 0 1 1 .001.001l.149.132A9.96 9.96 0 0 0 12.015 22c5.278 0 9.613-4.108 9.984-9.292c.274-2.539-.476-5.763-1.752-9.596" /><animateTransform attributeName="transform" attributeType="XML" type="scale" values="1 1;1 1;1 -1;1 1;1 1;1 -1;1 1" keyTimes="0.000000;0.400000;0.450000;0.500000;0.900000;0.950000;1.000000" dur="10.000s" repeatCount="indefinite" calcMode="spline" keySplines="0.42 0 0.58 1;0.42 0 0.58 1;0.42 0 0.58 1;0.42 0 0.58 1;0.42 0 0.58 1;0.42 0 0.58 1" /></g></g>
  </g>
</svg>