<svg xmlns="http://www.w3.org/2000/svg"
     width="256" height="256"
     viewBox="0 0 256 256">

  <rect x="0" y="0"
        width="256" height="256"
        rx="128" ry="128"
        fill="#ffffff" />
  <g transform="
      translate(128.0,128.0)
      scale(7.466666666666666)
      translate(-12.0,-12.0)
  ">
<path xmlns="http://www.w3.org/2000/svg" fill="#006EC7" d="M11.782 5.72a4.773 4.773 0 0 0-4.8 4.173a3.43 3.43 0 0 1 2.741-1.687c1.689 0 2.974 1.972 3.758 2.587a5.73 5.73 0 0 0 5.382.935c2-.638 2.934-2.865 3.137-3.921c-.969 1.379-2.44 2.207-4.259 1.231c-1.253-.673-2.19-3.438-5.959-3.318M6.8 11.979A4.77 4.77 0 0 0 2 16.151a3.43 3.43 0 0 1 2.745-1.687c1.689 0 2.974 1.972 3.758 2.587a5.73 5.73 0 0 0 5.382.935c2-.638 2.933-2.865 3.137-3.921c-.97 1.379-2.44 2.208-4.259 1.231c-1.253-.673-2.19-3.443-5.963-3.317" />
  </g>
</svg>